<svg width="209" height="90" viewBox="0 0 209 90" fill="none" xmlns="http://www.w3.org/2000/svg">
<path d="M3 38.2889V42.7466H7.25322V38.2889H3Z" fill="black"/>
<path d="M23.1536 23.8383C20.4538 23.8383 18.2717 25.0641 16.9033 26.8473H16.7553V16H13.2418V42.7466H16.7553V33.5711C16.7553 29.8934 19.0484 27.2559 22.414 27.2559C25.5946 27.2559 27.4438 29.6334 27.4438 32.8281V42.7466H30.9574V32.1966C30.9574 27.1073 27.8137 23.8383 23.1536 23.8383Z" fill="black"/>
<path d="M49.0591 24.3583H40.7377V17.8574H37.2242V24.3583H33.8956V27.776H37.2242V38.1403C37.2242 41.1121 38.8885 42.7467 41.8843 42.7467H49.0591V39.2919H42.587C41.4034 39.2919 40.7377 38.6232 40.7377 37.4717V27.776H49.0591V24.3583Z" fill="black"/>
<path d="M74.1581 23.8754C71.3471 23.8754 69.2023 25.2498 68.0188 27.4416H67.9078C66.8352 25.287 64.8381 23.8754 62.1013 23.8754C59.6603 23.8754 57.8109 25.1755 56.7016 26.9958H56.5535V24.3583H53.188V42.7466H56.7016V33.311C56.7016 29.8562 58.5135 27.3302 61.2507 27.2559C63.8393 27.1816 65.3558 29.039 65.3558 31.8251V42.7466H68.8694V33.0138C68.8694 28.8904 71.3104 27.2559 73.4185 27.2559C75.9704 27.2559 77.4869 29.039 77.4869 31.8251V42.7466H81.0001V31.4536C81.0001 26.9958 78.4852 23.8754 74.1581 23.8754Z" fill="black"/>
<path d="M85.7619 37.9917C85.7619 41.0007 87.4632 42.7466 90.6067 42.7466H94.0832V39.329H91.1245C89.9409 39.329 89.2751 38.6603 89.2751 37.5088V16H85.7619V37.9917Z" fill="black"/>
<path d="M53.0178 50.1005H52.8697C51.4988 48.254 49.2761 46.9614 46.3119 46.9245C40.8653 46.8506 36.975 50.876 36.975 56.5632C36.975 62.2874 40.9394 66.3128 46.2748 66.239C49.3128 66.2019 51.4988 64.8356 52.8697 62.8781H53.0178V65.7217H56.501V47.4415H53.0178V50.1005ZM46.7934 62.8414C42.9402 62.8414 40.4948 60.0345 40.4948 56.5632C40.4948 53.0918 42.9402 50.2851 46.7934 50.2851C50.5356 50.2851 52.9811 53.0918 52.9811 56.5632C52.9811 59.9978 50.5356 62.8414 46.7934 62.8414Z" fill="black"/>
<path d="M79.5015 54.0889C78.6492 49.9527 74.9813 46.9245 70.1648 46.9245C64.3479 46.9245 60.4576 51.1714 60.4576 56.5632C60.4576 61.9548 64.3479 66.239 70.1648 66.239C74.9813 66.239 78.6492 63.1367 79.5015 58.9636H75.8336C75.0927 61.2903 72.9066 62.8781 70.2019 62.8781C66.4226 62.8781 63.977 60.0345 63.977 56.5632C63.977 53.0918 66.4226 50.2851 70.2019 50.2851C73.0176 50.2851 75.0927 51.9469 75.8336 54.0889H79.5015Z" fill="black"/>
<path d="M98.3185 50.1005H98.1704C96.7995 48.254 94.5763 46.9614 91.6121 46.9245C86.1657 46.8506 82.2754 50.876 82.2754 56.5632C82.2754 62.2874 86.24 66.3128 91.575 66.239C94.6134 66.2019 96.7995 64.8356 98.1704 62.8781H98.3185V65.7217H101.801V47.4415H98.3185V50.1005ZM92.094 62.8414C88.2404 62.8414 85.7953 60.0345 85.7953 56.5632C85.7953 53.0918 88.2404 50.2851 92.094 50.2851C95.8362 50.2851 98.2814 53.0918 98.2814 56.5632C98.2814 59.9978 95.8362 62.8414 92.094 62.8414Z" fill="black"/>
<path d="M121.801 50.2851H121.653C120.282 48.3278 117.984 46.9614 115.057 46.9245C109.722 46.8506 105.758 50.8759 105.758 56.6001C105.758 62.2873 109.648 66.3128 115.095 66.2389C117.984 66.2018 120.282 64.9094 121.616 63.0629H121.801V65.7216H125.284V39.1323H121.801V50.2851ZM115.576 62.8781C111.723 62.8781 109.278 60.0716 109.278 56.6001C109.278 53.1287 111.723 50.322 115.576 50.322C119.319 50.322 121.764 53.1656 121.764 56.6001C121.764 60.0716 119.319 62.8781 115.576 62.8781Z" fill="black"/>
<path d="M138.544 46.9245C132.913 46.9245 129.059 51.2453 129.059 56.6001C129.059 61.8072 132.69 66.239 138.618 66.239C142.916 66.239 146.362 63.9123 147.585 60.0345H143.917C143.102 61.7704 141.138 62.8781 138.767 62.8781C135.432 62.8781 133.061 60.6624 132.801 57.8188H147.955C148.437 51.7254 144.621 46.9245 138.544 46.9245ZM138.47 50.2851C141.397 50.2851 143.583 52.0947 144.139 54.7167H132.876C133.394 52.1316 135.58 50.2851 138.47 50.2851Z" fill="black"/>
<path d="M172.926 46.9614C170.11 46.9614 167.961 48.3278 166.776 50.5067H166.664C165.59 48.3647 163.589 46.9614 160.847 46.9614C158.402 46.9614 156.55 48.254 155.438 50.0635H155.29V47.4415H151.918V65.7217H155.438V56.3416C155.438 52.9071 157.254 50.3959 159.996 50.322C162.589 50.2482 164.108 52.0947 164.108 54.8644V65.7217H167.628V56.0462C167.628 51.9469 170.073 50.322 172.185 50.322C174.742 50.322 176.261 52.0947 176.261 54.8644V65.7217H179.78V54.4951C179.78 50.0635 177.261 46.9614 172.926 46.9614Z" fill="black"/>
<path d="M192.381 62.8042L186.083 47.4414H182.192L190.566 67.4575L190.529 67.5314C189.936 69.0453 189.269 69.5994 187.639 69.5994H183.304V73.1075H187.639C190.825 73.1075 192.529 71.6674 193.715 68.5652L201.792 47.4414H198.198L192.381 62.8042Z" fill="black"/>
</svg>
